<?xml version="1.0" encoding="utf-8"?>
<!-- Generator: Adobe Illustrator 24.1.1, SVG Export Plug-In . SVG Version: 6.00 Build 0)  -->
<svg version="1.1" id="Слой_1" xmlns="http://www.w3.org/2000/svg" xmlns:xlink="http://www.w3.org/1999/xlink" x="0px" y="0px"
	 viewBox="0 0 86 86" style="enable-background:new 0 0 86 86;" xml:space="preserve">
<style type="text/css">
	.st0{display:none;}
	.st1{display:inline;fill:#FFC8A0;}
	.st2{fill:url(#SVGID_1_);}
	.st3{fill:url(#SVGID_2_);}
	.st4{opacity:0.1;fill:url(#SVGID_3_);enable-background:new    ;}
	.st5{opacity:0.1;fill:url(#SVGID_4_);enable-background:new    ;}
	.st6{opacity:0.1;fill:url(#SVGID_5_);enable-background:new    ;}
	.st7{opacity:0.1;fill:url(#SVGID_6_);enable-background:new    ;}
	.st8{opacity:0.1;fill:url(#SVGID_7_);enable-background:new    ;}
	.st9{opacity:0.1;fill:url(#SVGID_8_);enable-background:new    ;}
	.st10{opacity:0.1;fill:url(#SVGID_9_);enable-background:new    ;}
	.st11{opacity:0.95;fill:#FFFFFF;}
</style>
<g id="Layer_2" class="st0">
</g>
<g class="st0">
	<path class="st1" d="M41.4,85.6c-0.2,0-0.4,0-0.6,0C41,85.6,41.2,85.6,41.4,85.6z"/>
	<path class="st1" d="M41.8,85.6c0.4,0,0.8,0,1.1,0c-0.5,0-1,0-1.5,0C41.6,85.6,41.7,85.6,41.8,85.6z"/>
	<path class="st1" d="M0.4,45.2c0-0.2,0-0.4,0-0.6C0.4,44.7,0.4,45,0.4,45.2z"/>
	<path class="st1" d="M0.3,44.1c0,0.1,0,0.2,0,0.4c0-0.5,0-1,0-1.5C0.3,43.4,0.3,43.8,0.3,44.1z"/>
</g>
<linearGradient id="SVGID_1_" gradientUnits="userSpaceOnUse" x1="6.8043" y1="-5.2696" x2="91.2566" y2="79.1827">
	<stop  offset="0" style="stop-color:#F5E7B8"/>
	<stop  offset="0.9951" style="stop-color:#E6D695"/>
</linearGradient>
<path class="st2" d="M85.7,1.8v82.4c0,0.8-0.6,1.5-1.4,1.5H43c-7.5,0-14.6-1.9-20.7-5.4c-1.1-0.6-2.1-1.3-3.2-1.9
	c-3.3-2.2-6.3-4.9-8.9-8c-0.5-0.6-1.1-1.3-1.5-1.9c-1.8-2.5-3.4-5.2-4.7-8c-0.3-0.6-0.6-1.3-0.8-1.9c-1-2.6-1.8-5.2-2.2-8
	c-0.1-0.6-0.2-1.3-0.3-1.9c-0.2-1.8-0.4-3.7-0.4-5.5V1.8C0.3,1,1,0.3,1.8,0.3h82.5C85,0.3,85.7,1,85.7,1.8z"/>
<g>
	
		<linearGradient id="SVGID_2_" gradientUnits="userSpaceOnUse" x1="28.5896" y1="50.8865" x2="57.6007" y2="101.1353" gradientTransform="matrix(1 0 0 -1 0 85.8898)">
		<stop  offset="0" style="stop-color:#25C3DB"/>
		<stop  offset="0.9951" style="stop-color:#0082C9"/>
	</linearGradient>
	<path class="st3" d="M84.2,0.3H1.8C1,0.3,0.3,1,0.3,1.8v16.9h85.3V1.8C85.7,1,85,0.3,84.2,0.3z"/>
</g>
<linearGradient id="SVGID_3_" gradientUnits="userSpaceOnUse" x1="8.74" y1="69.3848" x2="85.65" y2="69.3848">
	<stop  offset="0" style="stop-color:#000000;stop-opacity:0"/>
	<stop  offset="0.1434" style="stop-color:#000000;stop-opacity:0.1434"/>
	<stop  offset="1" style="stop-color:#000000"/>
</linearGradient>
<path class="st4" d="M85.7,68.4v1.9H10.3c-0.5-0.6-1.1-1.3-1.5-1.9H85.7z"/>
<linearGradient id="SVGID_4_" gradientUnits="userSpaceOnUse" x1="19.14" y1="79.3297" x2="85.65" y2="79.3297">
	<stop  offset="0" style="stop-color:#000000;stop-opacity:0"/>
	<stop  offset="0.1434" style="stop-color:#000000;stop-opacity:0.1434"/>
	<stop  offset="1" style="stop-color:#000000"/>
</linearGradient>
<path class="st5" d="M85.7,78.4v1.9H22.3c-1.1-0.6-2.1-1.3-3.2-1.9H85.7z"/>
<linearGradient id="SVGID_5_" gradientUnits="userSpaceOnUse" x1="3.25" y1="59.4398" x2="85.65" y2="59.4398">
	<stop  offset="0" style="stop-color:#000000;stop-opacity:0"/>
	<stop  offset="0.1434" style="stop-color:#000000;stop-opacity:0.1434"/>
	<stop  offset="1" style="stop-color:#000000"/>
</linearGradient>
<path class="st6" d="M85.7,58.5v1.9H4.1c-0.3-0.6-0.6-1.3-0.8-1.9H85.7z"/>
<linearGradient id="SVGID_6_" gradientUnits="userSpaceOnUse" x1="2.998354e-02" y1="50.1498" x2="1.175" y2="49.0048">
	<stop  offset="0" style="stop-color:#F5E7B8"/>
	<stop  offset="0.9951" style="stop-color:#E6D695"/>
</linearGradient>
<path class="st7" d="M1,50.5H0.3v-1.9h0.4C0.8,49.2,0.9,49.8,1,50.5z"/>
<linearGradient id="SVGID_7_" gradientUnits="userSpaceOnUse" x1="0.7" y1="49.4998" x2="85.65" y2="49.4998">
	<stop  offset="0" style="stop-color:#000000;stop-opacity:0"/>
	<stop  offset="0.1434" style="stop-color:#000000;stop-opacity:0.1434"/>
	<stop  offset="1" style="stop-color:#000000"/>
</linearGradient>
<path class="st8" d="M85.7,48.5v1.9H1c-0.1-0.6-0.2-1.3-0.3-1.9H85.7z"/>
<linearGradient id="SVGID_8_" gradientUnits="userSpaceOnUse" x1="0.3485" y1="29.6128" x2="85.6515" y2="29.6128">
	<stop  offset="0" style="stop-color:#000000;stop-opacity:0"/>
	<stop  offset="0.1434" style="stop-color:#000000;stop-opacity:0.1434"/>
	<stop  offset="1" style="stop-color:#000000"/>
</linearGradient>
<rect x="0.3" y="28.6" class="st9" width="85.3" height="1.9"/>
<linearGradient id="SVGID_9_" gradientUnits="userSpaceOnUse" x1="0.3485" y1="39.5558" x2="85.6515" y2="39.5558">
	<stop  offset="0" style="stop-color:#000000;stop-opacity:0"/>
	<stop  offset="0.1434" style="stop-color:#000000;stop-opacity:0.1434"/>
	<stop  offset="1" style="stop-color:#000000"/>
</linearGradient>
<rect x="0.3" y="38.6" class="st10" width="85.3" height="1.9"/>
<path id="XMLID_107_" class="st11" d="M67.9,2.2c-3.3,0-6.1,2.2-7,5.3c-0.8-1.6-2.4-2.7-4.3-2.7c-2.6,0-4.7,2.1-4.7,4.7
	c0,2.6,2.1,4.7,4.7,4.7c1.9,0,3.5-1.1,4.3-2.7c0.9,3,3.7,5.3,7,5.3c3.3,0,6.1-2.2,7-5.2c0.8,1.6,2.4,2.7,4.3,2.7
	c2.6,0,4.7-2.1,4.7-4.7s-2.1-4.7-4.7-4.7c-1.9,0-3.5,1.1-4.3,2.7C74,4.5,71.2,2.2,67.9,2.2z M67.9,5c2.5,0,4.5,2,4.5,4.5
	s-2,4.5-4.5,4.5c-2.5,0-4.5-2-4.5-4.5S65.4,5,67.9,5z M56.7,7.6c1.1,0,2,0.9,2,2c0,1.1-0.9,2-2,2c-1.1,0-2-0.9-2-2
	C54.7,8.4,55.6,7.6,56.7,7.6z M79.2,7.6c1.1,0,2,0.9,2,2c0,1.1-0.9,2-2,2c-1.1,0-2-0.9-2-2C77.2,8.4,78.1,7.6,79.2,7.6z"/>
</svg>
